<mxfile host="app.diagrams.net" modified="2021-02-08T12:53:22.353Z" agent="5.0 (Windows NT 10.0; Win64; x64) AppleWebKit/537.36 (KHTML, like Gecko) Chrome/88.0.4324.146 Safari/537.36" etag="sCnoPwYkFQurSyNg-aKH" version="14.3.0" type="github">
  <diagram name="DDD" id="58cdce13-f638-feb5-8d6f-7d28b1aa9fa0">
    <mxGraphModel dx="2062" dy="1123" grid="1" gridSize="10" guides="1" tooltips="1" connect="1" arrows="1" fold="1" page="1" pageScale="1" pageWidth="1100" pageHeight="850" background="#ffffff" math="0" shadow="0">
      <root>
        <mxCell id="0" />
        <mxCell id="1" parent="0" />
        <mxCell id="1ASNzBmxT0uugiNgqJaq-3" value="common" style="shape=module;align=left;spacingLeft=20;align=center;verticalAlign=middle;fontStyle=1;fontSize=16;fillColor=#1ba1e2;strokeColor=#006EAF;fontColor=#ffffff;" parent="1" vertex="1">
          <mxGeometry x="480" y="50" width="160" height="50" as="geometry" />
        </mxCell>
        <mxCell id="1ASNzBmxT0uugiNgqJaq-25" style="edgeStyle=orthogonalEdgeStyle;rounded=0;orthogonalLoop=1;jettySize=auto;html=1;fontSize=16;" parent="1" source="1ASNzBmxT0uugiNgqJaq-4" target="1ASNzBmxT0uugiNgqJaq-3" edge="1">
          <mxGeometry relative="1" as="geometry">
            <Array as="points">
              <mxPoint x="320" y="75" />
            </Array>
          </mxGeometry>
        </mxCell>
        <mxCell id="1ASNzBmxT0uugiNgqJaq-4" value="types" style="shape=module;align=left;spacingLeft=20;align=center;verticalAlign=middle;fontStyle=1;fontSize=16;fillColor=#d5e8d4;strokeColor=#82b366;" parent="1" vertex="1">
          <mxGeometry x="220" y="171" width="190" height="50" as="geometry" />
        </mxCell>
        <mxCell id="1ASNzBmxT0uugiNgqJaq-13" style="edgeStyle=orthogonalEdgeStyle;rounded=0;orthogonalLoop=1;jettySize=auto;html=1;entryX=0.537;entryY=1.02;entryDx=0;entryDy=0;entryPerimeter=0;fontSize=16;" parent="1" source="1ASNzBmxT0uugiNgqJaq-5" target="1ASNzBmxT0uugiNgqJaq-3" edge="1">
          <mxGeometry relative="1" as="geometry" />
        </mxCell>
        <mxCell id="1ASNzBmxT0uugiNgqJaq-16" style="edgeStyle=orthogonalEdgeStyle;rounded=0;orthogonalLoop=1;jettySize=auto;html=1;entryX=1;entryY=0.5;entryDx=0;entryDy=0;fontSize=16;" parent="1" source="1ASNzBmxT0uugiNgqJaq-5" target="1ASNzBmxT0uugiNgqJaq-4" edge="1">
          <mxGeometry relative="1" as="geometry" />
        </mxCell>
        <mxCell id="1ASNzBmxT0uugiNgqJaq-5" value="domain" style="shape=module;align=left;spacingLeft=20;align=center;verticalAlign=middle;fontStyle=1;fontSize=16;fillColor=#d5e8d4;strokeColor=#82b366;" parent="1" vertex="1">
          <mxGeometry x="470" y="171" width="190" height="50" as="geometry" />
        </mxCell>
        <mxCell id="1ASNzBmxT0uugiNgqJaq-24" style="edgeStyle=orthogonalEdgeStyle;rounded=0;orthogonalLoop=1;jettySize=auto;html=1;entryX=0.5;entryY=1;entryDx=0;entryDy=0;fontSize=16;" parent="1" source="1ASNzBmxT0uugiNgqJaq-6" target="1ASNzBmxT0uugiNgqJaq-7" edge="1">
          <mxGeometry relative="1" as="geometry" />
        </mxCell>
        <mxCell id="1ASNzBmxT0uugiNgqJaq-6" value="web" style="shape=module;align=left;spacingLeft=20;align=center;verticalAlign=middle;fontStyle=1;fontSize=16;fillColor=#a20025;strokeColor=#6F0000;fontColor=#ffffff;" parent="1" vertex="1">
          <mxGeometry x="470" y="651" width="190" height="50" as="geometry" />
        </mxCell>
        <mxCell id="1ASNzBmxT0uugiNgqJaq-20" style="edgeStyle=orthogonalEdgeStyle;rounded=0;orthogonalLoop=1;jettySize=auto;html=1;entryX=0.5;entryY=1;entryDx=0;entryDy=0;fontSize=16;" parent="1" source="1ASNzBmxT0uugiNgqJaq-7" target="1ASNzBmxT0uugiNgqJaq-8" edge="1">
          <mxGeometry relative="1" as="geometry" />
        </mxCell>
        <mxCell id="1ASNzBmxT0uugiNgqJaq-21" style="edgeStyle=orthogonalEdgeStyle;rounded=0;orthogonalLoop=1;jettySize=auto;html=1;entryX=0.537;entryY=0.98;entryDx=0;entryDy=0;entryPerimeter=0;fontSize=16;" parent="1" source="1ASNzBmxT0uugiNgqJaq-7" target="1ASNzBmxT0uugiNgqJaq-9" edge="1">
          <mxGeometry relative="1" as="geometry" />
        </mxCell>
        <mxCell id="1ASNzBmxT0uugiNgqJaq-22" style="edgeStyle=orthogonalEdgeStyle;rounded=0;orthogonalLoop=1;jettySize=auto;html=1;entryX=0.5;entryY=1;entryDx=0;entryDy=0;fontSize=16;" parent="1" source="1ASNzBmxT0uugiNgqJaq-7" target="1ASNzBmxT0uugiNgqJaq-10" edge="1">
          <mxGeometry relative="1" as="geometry" />
        </mxCell>
        <mxCell id="1ASNzBmxT0uugiNgqJaq-23" style="edgeStyle=orthogonalEdgeStyle;rounded=0;orthogonalLoop=1;jettySize=auto;html=1;entryX=1;entryY=0.5;entryDx=0;entryDy=0;fontSize=16;" parent="1" source="1ASNzBmxT0uugiNgqJaq-7" target="1ASNzBmxT0uugiNgqJaq-5" edge="1">
          <mxGeometry relative="1" as="geometry">
            <Array as="points">
              <mxPoint x="565" y="461" />
              <mxPoint x="710" y="461" />
              <mxPoint x="710" y="196" />
            </Array>
          </mxGeometry>
        </mxCell>
        <mxCell id="1ASNzBmxT0uugiNgqJaq-7" value="service" style="shape=module;align=left;spacingLeft=20;align=center;verticalAlign=middle;fontStyle=1;fontSize=16;fillColor=#d80073;strokeColor=#A50040;fontColor=#ffffff;" parent="1" vertex="1">
          <mxGeometry x="470" y="491" width="190" height="50" as="geometry" />
        </mxCell>
        <mxCell id="1ASNzBmxT0uugiNgqJaq-14" style="edgeStyle=orthogonalEdgeStyle;rounded=0;orthogonalLoop=1;jettySize=auto;html=1;entryX=0.5;entryY=1;entryDx=0;entryDy=0;fontSize=16;" parent="1" source="1ASNzBmxT0uugiNgqJaq-8" target="1ASNzBmxT0uugiNgqJaq-5" edge="1">
          <mxGeometry relative="1" as="geometry" />
        </mxCell>
        <mxCell id="1ASNzBmxT0uugiNgqJaq-8" value="persistence" style="shape=module;align=left;spacingLeft=20;align=center;verticalAlign=middle;fontStyle=1;fontSize=16;fillColor=#0050ef;strokeColor=#001DBC;fontColor=#ffffff;" parent="1" vertex="1">
          <mxGeometry x="470" y="331" width="190" height="50" as="geometry" />
        </mxCell>
        <mxCell id="1ASNzBmxT0uugiNgqJaq-19" style="edgeStyle=orthogonalEdgeStyle;rounded=0;orthogonalLoop=1;jettySize=auto;html=1;entryX=0.75;entryY=1;entryDx=0;entryDy=0;fontSize=16;" parent="1" source="1ASNzBmxT0uugiNgqJaq-9" target="1ASNzBmxT0uugiNgqJaq-5" edge="1">
          <mxGeometry relative="1" as="geometry">
            <Array as="points">
              <mxPoint x="830" y="291" />
              <mxPoint x="613" y="291" />
            </Array>
          </mxGeometry>
        </mxCell>
        <mxCell id="1ASNzBmxT0uugiNgqJaq-9" value="message-queue" style="shape=module;align=left;spacingLeft=20;align=center;verticalAlign=middle;fontStyle=1;fontSize=16;fillColor=#f5f5f5;strokeColor=#666666;fontColor=#333333;" parent="1" vertex="1">
          <mxGeometry x="730" y="331" width="190" height="50" as="geometry" />
        </mxCell>
        <mxCell id="1ASNzBmxT0uugiNgqJaq-18" style="edgeStyle=orthogonalEdgeStyle;rounded=0;orthogonalLoop=1;jettySize=auto;html=1;entryX=0.25;entryY=1;entryDx=0;entryDy=0;fontSize=16;" parent="1" source="1ASNzBmxT0uugiNgqJaq-10" target="1ASNzBmxT0uugiNgqJaq-5" edge="1">
          <mxGeometry relative="1" as="geometry">
            <Array as="points">
              <mxPoint x="315" y="291" />
              <mxPoint x="518" y="291" />
            </Array>
          </mxGeometry>
        </mxCell>
        <mxCell id="1ASNzBmxT0uugiNgqJaq-10" value="external-integration" style="shape=module;align=left;spacingLeft=20;align=center;verticalAlign=middle;fontStyle=1;fontSize=16;fillColor=#f5f5f5;strokeColor=#666666;fontColor=#333333;" parent="1" vertex="1">
          <mxGeometry x="220" y="331" width="190" height="50" as="geometry" />
        </mxCell>
        <mxCell id="1ASNzBmxT0uugiNgqJaq-29" value="kafka" style="shape=note;size=20;whiteSpace=wrap;html=1;fontSize=14;dashed=1;" parent="1" vertex="1">
          <mxGeometry x="870" y="370" width="100" height="40" as="geometry" />
        </mxCell>
        <mxCell id="1ASNzBmxT0uugiNgqJaq-30" value="3rd-party integration" style="shape=note;size=20;whiteSpace=wrap;html=1;fontSize=14;dashed=1;" parent="1" vertex="1">
          <mxGeometry x="350" y="370" width="100" height="40" as="geometry" />
        </mxCell>
        <mxCell id="1ASNzBmxT0uugiNgqJaq-31" value="mybatis" style="shape=note;size=20;whiteSpace=wrap;html=1;fontSize=14;dashed=1;" parent="1" vertex="1">
          <mxGeometry x="590" y="370" width="100" height="40" as="geometry" />
        </mxCell>
      </root>
    </mxGraphModel>
  </diagram>
</mxfile>
